<svg width="512" height="512" xmlns="http://www.w3.org/2000/svg">

 <g>
  <title>background</title>
  <rect fill="none" id="canvas_background" height="402" width="582" y="-1" x="-1"/>
 </g>
 <g>
  <title>Layer 1</title>
  <path id="svg_2" fill-rule="evenodd" clip-rule="evenodd" fill="#ffffff" d="m425.614,86.349c-43.442,-43.448 -103.361,-70.279 -169.654,-70.279c-66.292,0 -126.209,26.831 -169.652,70.278c-43.443,43.445 -70.279,103.359 -70.279,169.652c0,66.29 26.836,126.209 70.279,169.652c43.443,43.447 103.359,70.276 169.652,70.276c66.293,0 126.212,-26.829 169.654,-70.276c43.443,-43.443 70.282,-103.362 70.282,-169.652c0,-66.292 -26.838,-126.206 -70.282,-169.651zm-13.149,326.15c-40.121,39.993 -95.394,64.702 -156.505,64.702c-61.109,0 -116.379,-24.709 -156.367,-64.702c-39.991,-40.117 -64.833,-95.385 -64.833,-156.498c0,-61.111 24.842,-116.379 64.833,-156.367c39.988,-39.988 95.258,-64.835 156.367,-64.835c61.111,0 116.384,24.847 156.505,64.835c39.988,39.988 64.698,95.256 64.698,156.367c0,61.113 -24.71,116.381 -64.698,156.498z"/>
  <path id="svg_3" fill-rule="evenodd" clip-rule="evenodd" fill="#ffffff" d="m276,187.316c0,-9.433 4.537,-13.316 9.061,-13.316c4.382,0 28.939,0 28.939,0l0,-43l-39.307,0c-42.113,0 -52.693,33.729 -52.693,53.925l0,19.075l-24,0l0,32.603l0,15.397l24,0c0,58 0,126 0,126l54,0c0,0 0,-68 0,-126l32.705,0l1.595,-18.752l2.925,-29.248l-37.225,0l0,-16.684z"/>
 </g>
</svg>