<svg width="32" height="32" xmlns="http://www.w3.org/2000/svg">

 <g>
  <title>background</title>
  <rect fill="none" id="canvas_background" height="402" width="582" y="-1" x="-1"/>
 </g>
 <g>
  <title>Layer 1</title>
  <path id="svg_1" fill="#ffffff" d="m21.874,8.167l-11.748,0c-1.106,0 -1.959,0.852 -1.959,1.959l0,11.749c0,1.105 0.852,1.959 1.959,1.959l11.749,0c1.105,0 1.959,-0.852 1.959,-1.959l0,-11.749c-0.001,-1.107 -0.854,-1.959 -1.96,-1.959zm-5.862,4.756c1.737,0 3.145,1.364 3.145,3.048c0,1.682 -1.408,3.048 -3.145,3.048c-1.736,0 -3.144,-1.365 -3.144,-3.048c0,-1.684 1.408,-3.048 3.144,-3.048zm5.862,8.462c0,0.344 -0.147,0.49 -0.49,0.49l-10.77,0c-0.343,0 -0.49,-0.146 -0.49,-0.49l0,-6.854l1.22,0.265c-0.131,0.426 -0.202,0.877 -0.202,1.344c0,2.604 2.181,4.716 4.868,4.716c2.688,0 4.868,-2.112 4.868,-4.716c0,-0.467 -0.071,-0.918 -0.202,-1.344l1.197,-0.265l0,6.854l0.001,0zm0,-8.811c0,0.271 -0.219,0.49 -0.49,0.49l-1.959,0c-0.271,0 -0.49,-0.219 -0.49,-0.49l0,-1.959c0,-0.271 0.219,-0.49 0.49,-0.49l1.959,0c0.271,0 0.49,0.219 0.49,0.49c0,0 0,1.959 0,1.959z"/>
  <path id="svg_7" fill="#ffffff" d="m16,1c8.271,0 15,6.729 15,15s-6.729,15 -15,15s-15,-6.729 -15,-15s6.729,-15 15,-15m0,-1c-8.837,0 -16,7.164 -16,16s7.163,16 16,16s16,-7.163 16,-16s-7.163,-16 -16,-16l0,0z"/>
 </g>
</svg>